<mxfile host="Electron" modified="2024-02-01T08:09:24.602Z" agent="Mozilla/5.0 (Windows NT 10.0; Win64; x64) AppleWebKit/537.36 (KHTML, like Gecko) draw.io/21.6.5 Chrome/114.0.5735.243 Electron/25.3.1 Safari/537.36" etag="Nds1vG67PVI0-LsEoIpH" version="21.6.5" type="device">
  <diagram name="第 1 页" id="w30AUK9DSsOt7ukP-Pom">
    <mxGraphModel dx="1021" dy="5172" grid="1" gridSize="10" guides="1" tooltips="1" connect="1" arrows="1" fold="1" page="1" pageScale="1" pageWidth="3300" pageHeight="4681" math="0" shadow="0">
      <root>
        <mxCell id="0" />
        <mxCell id="1" parent="0" />
        <mxCell id="drfvZaCfhGxgJuZnFnRQ-4" value="&lt;font style=&quot;font-size: 21px;&quot;&gt;记录基本状态&lt;/font&gt;" style="swimlane;whiteSpace=wrap;html=1;startSize=30;" parent="1" vertex="1">
          <mxGeometry x="100" y="-190" width="740" height="550" as="geometry">
            <mxRectangle x="100" y="-190" width="170" height="40" as="alternateBounds" />
          </mxGeometry>
        </mxCell>
        <mxCell id="drfvZaCfhGxgJuZnFnRQ-2" value="yes" style="labelPosition=center;verticalLabelPosition=middle;align=center;html=1;shape=mxgraph.basic.shaded_button;dx=10;fillColor=#E6E6E6;strokeColor=none;whiteSpace=wrap;" parent="drfvZaCfhGxgJuZnFnRQ-4" vertex="1">
          <mxGeometry x="60" y="120" width="100" height="60" as="geometry" />
        </mxCell>
        <mxCell id="drfvZaCfhGxgJuZnFnRQ-5" value="&lt;font style=&quot;font-size: 14px;&quot;&gt;（label）&lt;br&gt;更新：活动内容_简&lt;/font&gt;" style="rounded=0;whiteSpace=wrap;html=1;" parent="drfvZaCfhGxgJuZnFnRQ-4" vertex="1">
          <mxGeometry x="30" y="50" width="180" height="50" as="geometry" />
        </mxCell>
        <mxCell id="wUoSnvhOaIb2VXnFNVge-3" style="edgeStyle=orthogonalEdgeStyle;rounded=0;orthogonalLoop=1;jettySize=auto;html=1;entryX=0;entryY=0.5;entryDx=0;entryDy=0;" parent="drfvZaCfhGxgJuZnFnRQ-4" source="wUoSnvhOaIb2VXnFNVge-1" target="wUoSnvhOaIb2VXnFNVge-2" edge="1">
          <mxGeometry relative="1" as="geometry" />
        </mxCell>
        <mxCell id="wUoSnvhOaIb2VXnFNVge-1" value="update other table" style="labelPosition=center;verticalLabelPosition=middle;align=center;html=1;shape=mxgraph.basic.shaded_button;dx=10;fillColor=#E6E6E6;strokeColor=none;whiteSpace=wrap;" parent="drfvZaCfhGxgJuZnFnRQ-4" vertex="1">
          <mxGeometry x="60" y="320" width="100" height="60" as="geometry" />
        </mxCell>
        <mxCell id="wUoSnvhOaIb2VXnFNVge-2" value="会要求输入 待更新id的md的路径名称 然后自动读取更新&lt;br&gt;适用于 新建一个md&lt;br&gt;和不小心手滑删了一个md的id&lt;br&gt;只适用于 改名字 并且……算了 不要这个功能了" style="text;html=1;strokeColor=none;fillColor=none;align=center;verticalAlign=middle;whiteSpace=wrap;rounded=0;" parent="drfvZaCfhGxgJuZnFnRQ-4" vertex="1">
          <mxGeometry x="250" y="302.5" width="170" height="95" as="geometry" />
        </mxCell>
        <mxCell id="UZhfdiz0UHm-rR2ZN5RB-1" value="功能是 读取当前md文件的name path id，并由此更新原表，其他列不变" style="text;html=1;strokeColor=none;fillColor=none;align=center;verticalAlign=middle;whiteSpace=wrap;rounded=0;" vertex="1" parent="drfvZaCfhGxgJuZnFnRQ-4">
          <mxGeometry x="280" y="130" width="210" height="30" as="geometry" />
        </mxCell>
      </root>
    </mxGraphModel>
  </diagram>
</mxfile>
